<?xml version="1.0" encoding="UTF-8" standalone="no"?>
<svg
   xmlns:dc="http://purl.org/dc/elements/1.1/"
   xmlns:cc="http://creativecommons.org/ns#"
   xmlns:rdf="http://www.w3.org/1999/02/22-rdf-syntax-ns#"
   xmlns:svg="http://www.w3.org/2000/svg"
   xmlns="http://www.w3.org/2000/svg"
   id="svg4051"
   version="1.1"
   viewBox="0 0 24 24"
   height="24"
   width="24">
  <metadata
     id="metadata4057">
    <rdf:RDF>
      <cc:Work
         rdf:about="">
        <dc:format>image/svg+xml</dc:format>
        <dc:type
           rdf:resource="http://purl.org/dc/dcmitype/StillImage" />
        <dc:title></dc:title>
      </cc:Work>
    </rdf:RDF>
  </metadata>
  <defs
     id="defs4055" />
  <path
     style="fill:#000000;fill-rule:nonzero;stroke-width:0.66573691"
     id="path4049"
     d="M 21.879536,20.865951 H 20.69985 v -8.59067 h 0.466016 a 0.41075968,0.41075968 0 0 0 0.412091,-0.410094 V 2.1267875 a 1.095803,1.095803 0 0 0 0.685709,-1.0139173 1.0974673,1.0974673 0 0 0 -2.194934,0 c 0,0.458027 0.284269,0.8508118 0.685709,1.0139173 V 3.2465571 H 3.2455596 V 2.1267875 a 1.095803,1.095803 0 0 0 0.685709,-1.0139173 1.0978002,1.0978002 0 0 0 -2.1956004,0 c 0,0.458027 0.2849354,0.8508118 0.6863748,1.0139173 v 9.7383995 c 0,0.226351 0.1844091,0.410094 0.4114254,0.410094 H 3.30015 v 8.59067 H 2.1204642 A 0.41075968,0.41075968 0 0 0 1.708373,21.27671 v 2.298124 c 0,0.226351 0.1844091,0.410094 0.4120912,0.410094 H 21.879536 a 0.41075968,0.41075968 0 0 0 0.412091,-0.410094 V 21.27671 A 0.41075968,0.41075968 0 0 0 21.879536,20.865951 Z M 3.2455596,6.1198776 H 20.754441 V 7.3508252 H 3.2455596 V 6.1192119 Z m 0,2.0518012 H 20.754441 V 9.4026264 H 3.2455596 V 8.1710131 Z M 21.166532,0.83925231 c 0.151122,0 0.274283,0.12249559 0.274283,0.27295219 a 0.2746165,0.2746165 0 0 1 -0.549233,0 c 0,-0.1504566 0.123162,-0.27295219 0.27495,-0.27295219 z M 20.754441,4.0680764 V 5.299024 H 3.2455596 V 4.0674107 H 20.754441 Z M 2.8334684,0.83858657 c 0.151788,0 0.2749494,0.12249559 0.2749494,0.27295213 a 0.27461651,0.27461651 0 0 1 -0.549233,0 c 0,-0.15045654 0.1231613,-0.27295213 0.2742836,-0.27295213 z M 3.2455596,10.222814 H 20.754441 v 1.231614 H 3.2455596 Z m 15.2034344,5.246007 -5.190751,3.30605 v -6.500255 h 5.190751 z m 0,0.973973 v 2.89063 h -4.538329 z m -7.707237,-0.972641 -5.1907505,3.306049 v -0.886095 l 5.1907505,-3.30605 z m 0,0.973973 v 2.889298 H 6.2040944 Z m 0,-2.834042 -5.1907505,3.306049 v -4.641517 h 5.1907505 v 1.334802 z M 4.1236666,12.274616 H 4.72749 v 7.469568 c 0,0.22635 0.1844091,0.410094 0.4114254,0.410094 h 6.0142676 a 0.41075968,0.41075968 0 0 0 0.411425,-0.41076 v -7.468237 h 0.870784 v 7.469569 c 0,0.22635 0.183743,0.410094 0.411425,0.410094 h 6.014268 a 0.41075968,0.41075968 0 0 0 0.411425,-0.41076 v -7.468903 h 0.603824 v 8.59067 H 4.1243323 v -8.59067 z M 21.468111,23.163409 H 2.5318896 V 21.685473 H 21.468111 Z" />
</svg>
