<?xml version="1.0" encoding="UTF-8" standalone="no"?>
<svg
   xmlns:dc="http://purl.org/dc/elements/1.1/"
   xmlns:cc="http://creativecommons.org/ns#"
   xmlns:rdf="http://www.w3.org/1999/02/22-rdf-syntax-ns#"
   xmlns:svg="http://www.w3.org/2000/svg"
   xmlns="http://www.w3.org/2000/svg"
   width="24"
   height="24"
   viewBox="0 0 24 24"
   version="1.1"
   id="svg4051">
  <metadata
     id="metadata4057">
    <rdf:RDF>
      <cc:Work
         rdf:about="">
        <dc:format>image/svg+xml</dc:format>
        <dc:type
           rdf:resource="http://purl.org/dc/dcmitype/StillImage" />
        <dc:title></dc:title>
      </cc:Work>
    </rdf:RDF>
  </metadata>
  <defs
     id="defs4055" />
  <path
     id="path4049"
     d="M 2.8339844 0.015625 C 2.2850843 0.015625 1.7363281 0.38141497 1.7363281 1.1132812 C 1.7363281 1.5713082 2.0204356 1.9638476 2.421875 2.1269531 L 2.421875 20.884766 L 2.1210938 20.865234 C 1.8937175 20.864493 1.7089836 21.049967 1.7089844 21.277344 L 1.7089844 23.574219 C 1.7089844 23.80057 1.8934116 23.984375 2.1210938 23.984375 L 21.878906 23.984375 C 22.106022 23.985111 22.290649 23.801336 22.291016 23.574219 L 22.291016 21.277344 C 22.291017 21.049967 22.106282 20.864497 21.878906 20.865234 L 21.578125 20.884766 L 21.578125 2.1269531 C 21.991743 1.9600314 22.262754 1.559311 22.263672 1.1132812 C 22.262572 -0.34892489 20.067278 -0.34892489 20.068359 1.1132812 C 20.068359 1.5713082 20.352466 1.9638476 20.753906 2.1269531 L 20.753906 3.2460938 L 3.2460938 3.2460938 L 3.2460938 2.1269531 C 3.6597118 1.9600314 3.9307222 1.559311 3.9316406 1.1132812 C 3.9316406 0.38141497 3.3828845 0.015625 2.8339844 0.015625 z M 2.8339844 0.83789062 C 2.9857724 0.83789062 3.109375 0.96087166 3.109375 1.1113281 C 3.1092762 1.4773844 2.558495 1.4773844 2.5585938 1.1113281 C 2.5585938 0.96087171 2.6828621 0.83789065 2.8339844 0.83789062 z M 21.166016 0.83984375 C 21.317138 0.83984375 21.441406 0.9608716 21.441406 1.1113281 C 21.441406 1.4774833 20.890625 1.4774833 20.890625 1.1113281 C 20.890625 0.96087164 21.014228 0.83984375 21.166016 0.83984375 z M 3.2460938 4.0683594 L 20.753906 4.0683594 L 20.753906 5.2988281 L 3.2460938 5.2988281 L 3.2460938 4.0683594 z M 3.2460938 6.1191406 L 20.753906 6.1191406 L 20.753906 7.3515625 L 3.2460938 7.3515625 L 3.2460938 6.1191406 z M 3.2460938 8.171875 L 20.753906 8.171875 L 20.753906 9.4023438 L 3.2460938 9.4023438 L 3.2460938 8.171875 z M 3.2460938 10.222656 L 20.753906 10.222656 L 20.753906 11.455078 L 3.2460938 11.455078 L 3.2460938 10.222656 z M 3.2460938 12.222656 L 20.753906 12.222656 L 20.753906 13.455078 L 3.2460938 13.455078 L 3.2460938 12.222656 z M 3.2460938 14.222656 L 20.753906 14.222656 L 20.753906 15.455078 L 3.2460938 15.455078 L 3.2460938 14.222656 z M 3.2460938 16.222656 L 20.753906 16.222656 L 20.753906 17.455078 L 3.2460938 17.455078 L 3.2460938 16.222656 z M 3.2460938 18.222656 L 20.753906 18.222656 L 20.753906 19.455078 L 3.2460938 19.455078 L 3.2460938 18.222656 z M 3.2460938 20.222656 L 20.753906 20.222656 L 20.753906 20.882812 L 3.2460938 20.882812 L 3.2460938 20.222656 z M 2.53125 21.685547 L 21.46875 21.685547 L 21.46875 23.164062 L 2.53125 23.164062 L 2.53125 21.685547 z "
     style="fill:#000000;fill-rule:nonzero;stroke-width:0.66573691" />
</svg>
