<?xml version="1.0" encoding="UTF-8" standalone="no"?>
<svg
   xmlns:dc="http://purl.org/dc/elements/1.1/"
   xmlns:cc="http://creativecommons.org/ns#"
   xmlns:rdf="http://www.w3.org/1999/02/22-rdf-syntax-ns#"
   xmlns:svg="http://www.w3.org/2000/svg"
   xmlns="http://www.w3.org/2000/svg"
   id="svg3879"
   version="1.1"
   viewBox="0 0 24 24"
   height="24"
   width="24">
  <metadata
     id="metadata3885">
    <rdf:RDF>
      <cc:Work
         rdf:about="">
        <dc:format>image/svg+xml</dc:format>
        <dc:type
           rdf:resource="http://purl.org/dc/dcmitype/StillImage" />
        <dc:title></dc:title>
      </cc:Work>
    </rdf:RDF>
  </metadata>
  <defs
     id="defs3883" />
  <g
     transform="matrix(0.66641611,0,0,0.66641611,1.0041344,7.9796936)"
     id="g3926">
    <g
       id="g3877"
       style="fill:#000000;fill-rule:nonzero"
       transform="translate(0,-12)">
      <path
         d="M 11.247,5.005 C 10.631,3.758 10.146,2.775 11.217,1.165 A 0.75,0.75 0 0 0 9.97,0.334 C 8.418,2.662 9.241,4.33 9.903,5.669 c 0.62,1.254 1.067,2.16 0.066,3.665 a 0.75,0.75 0 0 0 0.623,1.165 0.743,0.743 0 0 0 0.622,-0.334 c 1.482,-2.223 0.679,-3.852 0.032,-5.16 z"
         id="path3911" />
      <path
         d="M 17.214,5.005 C 16.597,3.758 16.112,2.775 17.183,1.165 A 0.75,0.75 0 0 0 15.937,0.334 c -1.55,2.33 -0.727,3.997 -0.067,5.337 0.62,1.254 1.067,2.16 0.066,3.663 a 0.751,0.751 0 0 0 0.623,1.165 0.748,0.748 0 0 0 0.624,-0.334 c 1.481,-2.223 0.678,-3.852 0.031,-5.16 z"
         id="path3909" />
      <path
         d="M 23.18,5.005 C 22.563,3.758 22.078,2.775 23.149,1.165 A 0.75,0.75 0 0 0 21.903,0.334 c -1.55,2.33 -0.727,3.997 -0.066,5.337 0.618,1.254 1.066,2.16 0.065,3.663 a 0.751,0.751 0 0 0 0.624,1.165 c 0.242,0 0.479,-0.117 0.623,-0.334 1.481,-2.223 0.678,-3.852 0.031,-5.16 z"
         id="path3907" />
      <path
         d="m 3.7675781,12 a 3.752,3.752 0 0 0 -3.7441406,3.75 v 13.5 c 0,2.066 1.6791406,3.75 3.7441406,3.75 h 2.2460938 v 2.25 a 0.75,0.75 0 1 0 1.4980469,0 V 33 H 25.486328 v 2.25 a 0.75,0.75 0 1 0 1.498047,0 V 33 h 2.248047 a 3.752,3.752 0 0 0 3.74414,-3.75 v -13.5 c 0,-2.068 -1.67914,-3.75 -3.74414,-3.75 z m 0,1.5 H 29.232422 a 2.251,2.251 0 0 1 2.246094,2.25 v 13.5 c 0,1.24 -1.008094,2.25 -2.246094,2.25 h -2.996094 -0.002 H 6.7636719 3.7675781 A 2.251,2.251 0 0 1 1.5214844,29.25 v -13.5 c 0,-1.241 1.0070937,-2.25 2.2460937,-2.25 z"
         id="path3905" />
      <path
         d="m 5.266,15 a 0.75,0.75 0 0 0 -0.75,0.75 v 13.5 a 0.75,0.75 0 1 0 1.498,0 V 15.75 A 0.75,0.75 0 0 0 5.266,15 Z"
         id="path3901" />
      <path
         d="m 9.76,15 a 0.75,0.75 0 0 0 -0.75,0.75 v 13.5 a 0.75,0.75 0 1 0 1.498,0 V 15.75 A 0.75,0.75 0 0 0 9.76,15 Z"
         id="path3899" />
      <path
         d="m 14.253,15 a 0.75,0.75 0 0 0 -0.75,0.75 v 13.5 a 0.75,0.75 0 1 0 1.499,0 V 15.75 A 0.75,0.75 0 0 0 14.252,15 Z"
         id="path3897" />
      <path
         d="m 18.746,15 a 0.75,0.75 0 0 0 -0.749,0.75 v 13.5 a 0.75,0.75 0 1 0 1.498,0 V 15.75 A 0.75,0.75 0 0 0 18.746,15 Z"
         id="path3895" />
      <path
         d="m 23.24,15 a 0.75,0.75 0 0 0 -0.749,0.75 v 13.5 a 0.75,0.75 0 1 0 1.498,0 V 15.75 A 0.75,0.75 0 0 0 23.24,15 Z"
         id="path3893" />
      <path
         d="m 27.734,15 a 0.75,0.75 0 0 0 -0.75,0.75 v 13.5 a 0.75,0.75 0 1 0 1.499,0 V 15.75 A 0.75,0.75 0 0 0 27.733,15 Z"
         id="path3891" />
    </g>
  </g>
</svg>
