<?xml version="1.0" encoding="UTF-8" standalone="no"?>
<svg
   xmlns:dc="http://purl.org/dc/elements/1.1/"
   xmlns:cc="http://creativecommons.org/ns#"
   xmlns:rdf="http://www.w3.org/1999/02/22-rdf-syntax-ns#"
   xmlns:svg="http://www.w3.org/2000/svg"
   xmlns="http://www.w3.org/2000/svg"
   id="svg3879"
   version="1.1"
   viewBox="0 0 24 24"
   height="24"
   width="24">
  <metadata
     id="metadata3885">
    <rdf:RDF>
      <cc:Work
         rdf:about="">
        <dc:format>image/svg+xml</dc:format>
        <dc:type
           rdf:resource="http://purl.org/dc/dcmitype/StillImage" />
        <dc:title></dc:title>
      </cc:Work>
    </rdf:RDF>
  </metadata>
  <defs
     id="defs3883" />
  <g
     transform="matrix(0.66641611,0,0,0.66641611,1.0041344,7.9796936)"
     id="g3926">
    <g
       id="g3877"
       style="fill:#000000;fill-rule:nonzero"
       transform="translate(0,-12)">
      <path
         d="m 3.7675781,12 a 3.752,3.752 0 0 0 -3.7441406,3.75 v 13.5 c 0,2.066 1.6791406,3.75 3.7441406,3.75 h 2.2460938 v 2.25 a 0.75,0.75 0 1 0 1.4980469,0 V 33 H 25.486328 v 2.25 a 0.75,0.75 0 1 0 1.498047,0 V 33 h 2.248047 a 3.752,3.752 0 0 0 3.74414,-3.75 v -13.5 c 0,-2.068 -1.67914,-3.75 -3.74414,-3.75 z m 0,1.5 H 29.232422 a 2.251,2.251 0 0 1 2.246094,2.25 v 13.5 c 0,1.24 -1.008094,2.25 -2.246094,2.25 h -2.996094 -0.002 H 6.7636719 3.7675781 A 2.251,2.251 0 0 1 1.5214844,29.25 v -13.5 c 0,-1.241 1.0070937,-2.25 2.2460937,-2.25 z"
         id="path3905" />
      <path
         d="m 5.266,15 a 0.75,0.75 0 0 0 -0.75,0.75 v 13.5 a 0.75,0.75 0 1 0 1.498,0 V 15.75 A 0.75,0.75 0 0 0 5.266,15 Z"
         id="path3901" />
      <path
         d="m 9.76,15 a 0.75,0.75 0 0 0 -0.75,0.75 v 13.5 a 0.75,0.75 0 1 0 1.498,0 V 15.75 A 0.75,0.75 0 0 0 9.76,15 Z"
         id="path3899" />
      <path
         d="m 14.253,15 a 0.75,0.75 0 0 0 -0.75,0.75 v 13.5 a 0.75,0.75 0 1 0 1.499,0 V 15.75 A 0.75,0.75 0 0 0 14.252,15 Z"
         id="path3897" />
      <path
         d="m 18.746,15 a 0.75,0.75 0 0 0 -0.749,0.75 v 13.5 a 0.75,0.75 0 1 0 1.498,0 V 15.75 A 0.75,0.75 0 0 0 18.746,15 Z"
         id="path3895" />
      <path
         d="m 23.24,15 a 0.75,0.75 0 0 0 -0.749,0.75 v 13.5 a 0.75,0.75 0 1 0 1.498,0 V 15.75 A 0.75,0.75 0 0 0 23.24,15 Z"
         id="path3893" />
      <path
         d="m 27.734,15 a 0.75,0.75 0 0 0 -0.75,0.75 v 13.5 a 0.75,0.75 0 1 0 1.499,0 V 15.75 A 0.75,0.75 0 0 0 27.733,15 Z"
         id="path3891" />
    </g>
  </g>
</svg>
