<?xml version="1.0" encoding="UTF-8" standalone="no"?>
<svg
   xmlns:dc="http://purl.org/dc/elements/1.1/"
   xmlns:cc="http://creativecommons.org/ns#"
   xmlns:rdf="http://www.w3.org/1999/02/22-rdf-syntax-ns#"
   xmlns:svg="http://www.w3.org/2000/svg"
   xmlns="http://www.w3.org/2000/svg"
   id="svg8"
   version="1.1"
   viewBox="0 0 6.3499998 6.3500002"
   height="24"
   width="24">
  <defs
     id="defs2" />
  <metadata
     id="metadata5">
    <rdf:RDF>
      <cc:Work
         rdf:about="">
        <dc:format>image/svg+xml</dc:format>
        <dc:type
           rdf:resource="http://purl.org/dc/dcmitype/StillImage" />
        <dc:title></dc:title>
      </cc:Work>
    </rdf:RDF>
  </metadata>
  <g
     transform="translate(-158.52321,-140.44206)"
     id="layer1">
    <g
       style="fill:#000000;fill-rule:nonzero"
       transform="matrix(0.1750108,0,0,0.1750108,158.54802,140.46699)"
       id="g3717">
      <path
         id="path3744"
         transform="translate(-599.14285,-518.8054)"
         d="m 612.94336,527.20508 c -1.654,0 -3,1.346 -3,3 0,1.654 1.346,3 3,3 h 1.79883 v 8.40039 a 0.600585,0.600585 0 0 0 1.20117,0 v -8.40039 h 2.40039 v 8.40039 a 0.59999998,0.59999998 0 0 0 0.59961,0.59961 0.59999998,0.59999998 0 0 0 0.59961,-0.59961 v -8.40039 h 1.80078 c 1.654,0 3,-1.346 3,-3 0,-1.654 -1.346,-3 -3,-3 -1.654,0 -3,1.346 -3,3 v 1.80078 h -2.40039 v -1.80078 c 0,-1.654 -1.346,-3 -3,-3 z m 0,1.20117 c 0.992,0 1.79883,0.80683 1.79883,1.79883 v 1.80078 h -1.79883 c -0.992,0 -1.80078,-0.80878 -1.80078,-1.80078 0,-0.992 0.80878,-1.79883 1.80078,-1.79883 z m 8.40039,0 c 0.992,0 1.79883,0.80683 1.79883,1.79883 0,0.992 -0.80683,1.80078 -1.79883,1.80078 h -1.80078 v -1.80078 c 0,-0.992 0.80878,-1.79883 1.80078,-1.79883 z" />
      <path
         id="path3738"
         d="M 4.284,1.276 6.581,3.204 A 0.597,0.597 0 0 0 7.426,3.13 0.6,0.6 0 0 0 7.352,2.285 L 5.056,0.357 a 0.601,0.601 0 0 0 -0.772,0.92 z" />
      <path
         id="path3736"
         d="M 4.672,6.512 1.854,5.486 A 0.601,0.601 0 0 0 1.444,6.614 L 4.262,7.64 a 0.60010082,0.60010082 0 1 0 0.41,-1.128 z" />
      <path
         id="path3734"
         d="m 29.032,3.344 a 0.597,0.597 0 0 0 0.384,-0.14 l 2.298,-1.929 a 0.6,0.6 0 1 0 -0.77,-0.92 l -2.299,1.93 a 0.6,0.6 0 0 0 0.387,1.06 z" />
      <path
         id="path3732"
         d="M 3.599,11.401 H 0.6 a 0.6,0.6 0 0 0 0,1.2 h 2.999 a 0.6,0.6 0 0 0 0,-1.2 z" />
      <path
         id="path3713"
         d="M 34.914,5.843 A 0.6,0.6 0 0 0 34.145,5.485 l -2.818,1.026 a 0.60010082,0.60010082 0 1 0 0.41,1.128 l 2.819,-1.026 a 0.6,0.6 0 0 0 0.358,-0.77 z" />
      <path
         id="path3752"
         transform="translate(-599.14285,-518.8054)"
         d="m 617.14258,518.80469 c -6.617,0 -12,5.383 -12,12 0,5.064 1.98695,8.84267 6.25195,11.88867 0.02,0.015 0.0493,0.0329 0.0723,0.0449 0.031,0.017 0.67784,0.37667 0.83984,1.38867 a 1.792,1.792 0 0 0 -0.70312,2.87891 1.792,1.792 0 0 0 0,2.40039 c -0.286,0.319 -0.46094,0.73922 -0.46094,1.19922 0,0.992 0.80878,1.80078 1.80078,1.80078 a 0.600585,0.600585 0 0 0 0,-1.20117 0.59999999,0.59999999 0 0 1 0,-1.19922 h 6 a 0.600585,0.600585 0 0 0 0,-1.20117 h -6 a 0.59999999,0.59999999 0 0 1 0,-1.19922 h 6 a 0.59999999,0.59999999 0 1 0 0,-1.19922 h -6 a 0.600585,0.600585 0 0 1 0,-1.20117 h 6 a 0.59999999,0.59999999 0 0 0 0,-1.19922 h -5.44141 c -0.213,-1.51 -1.1915,-2.16464 -1.4375,-2.30664 -3.957,-2.836 -5.7207,-6.19753 -5.7207,-10.89453 0,-5.955 4.84383,-10.79883 10.79883,-10.79883 5.955,0 10.80078,4.84383 10.80078,10.79883 0,4.697 -1.76566,8.05853 -5.72266,10.89453 -0.276,0.16 -1.47851,0.96525 -1.47851,2.90625 a 0.59999999,0.59999999 0 0 0 0.60156,0.59961 0.600585,0.600585 0 0 1 0,1.20117 0.59999999,0.59999999 0 1 0 0,1.19922 0.59999999,0.59999999 0 0 1 0,1.19922 0.600585,0.600585 0 0 0 0,1.20117 0.59999999,0.59999999 0 0 1 0.59961,0.59961 c 0,0.342 -0.25761,0.59961 -0.59961,0.59961 h -6 a 0.59999999,0.59999999 0 0 0 -0.60156,0.59961 v 1.20117 c 0,0.992 0.80878,1.79883 1.80078,1.79883 h 1.19922 c 0.992,0 1.80078,-0.80683 1.80078,-1.79883 v -0.59961 h 1.80078 c 1.01,0 1.79883,-0.79078 1.79883,-1.80078 0,-0.46 -0.17299,-0.88022 -0.45899,-1.19922 a 1.792,1.792 0 0 0 0,-2.40039 1.792,1.792 0 0 0 -0.70312,-2.87891 c 0.162,-1.012 0.80608,-1.37076 0.83008,-1.38476 a 0.56599999,0.56599999 0 0 0 0.0801,-0.0488 c 4.266,-3.046 6.25196,-6.82467 6.25196,-11.88867 0,-6.617 -5.383,-12 -12,-12 z m -1.19922,33.60156 h 2.40039 v 0.59961 a 0.59999999,0.59999999 0 0 1 -0.60156,0.59961 h -1.19922 a 0.59999999,0.59999999 0 0 1 -0.59961,-0.59961 z" />
      <path
         id="path3715"
         d="m 35.4,11.4 h -3 a 0.6,0.6 0 1 0 0,1.2 h 3 a 0.6,0.6 0 1 0 0,-1.2 z" />
    </g>
  </g>
</svg>
