<?xml version="1.0" encoding="UTF-8" standalone="no"?>
<svg
   xmlns:dc="http://purl.org/dc/elements/1.1/"
   xmlns:cc="http://creativecommons.org/ns#"
   xmlns:rdf="http://www.w3.org/1999/02/22-rdf-syntax-ns#"
   xmlns:svg="http://www.w3.org/2000/svg"
   xmlns="http://www.w3.org/2000/svg"
   id="svg4302"
   version="1.1"
   viewBox="0 0 24 24"
   height="24"
   width="24">
  <metadata
     id="metadata4306">
    <rdf:RDF>
      <cc:Work
         rdf:about="">
        <dc:format>image/svg+xml</dc:format>
        <dc:type
           rdf:resource="http://purl.org/dc/dcmitype/StillImage" />
        <dc:title></dc:title>
      </cc:Work>
    </rdf:RDF>
  </metadata>
  <defs
     id="defs4286">
    <circle
       r="35"
       cy="35"
       cx="35"
       id="b" />
    <filter
       filterUnits="objectBoundingBox"
       y="-0.19299999"
       x="-0.27899998"
       height="1.5569999"
       width="1.5569999"
       id="a">
      <feOffset
         id="feOffset4279"
         result="shadowOffsetOuter1"
         in="SourceAlpha"
         dy="6" />
      <feGaussianBlur
         id="feGaussianBlur4281"
         stdDeviation="5.5"
         result="shadowBlurOuter1"
         in="shadowOffsetOuter1" />
      <feColorMatrix
         id="feColorMatrix4283"
         values="0 0 0 0 0.690196078 0 0 0 0 0.705882353 0 0 0 0 0.819607843 0 0 0 0.5 0"
         in="shadowBlurOuter1" />
    </filter>
  </defs>
  <g
     transform="matrix(0.76272977,0,0,0.76272977,-23.421552,-18.485928)"
     id="g4298"
     style="fill:#000000;fill-rule:nonzero">
    <path
       style="fill:#000000"
       d="m 46.44,46.015 c 1.671,0 3.1,-0.592 4.29,-1.775 1.19,-1.184 1.784,-2.608 1.784,-4.27 v -9.674 c 0,-1.663 -0.594,-3.086 -1.784,-4.27 -1.19,-1.184 -2.619,-1.776 -4.29,-1.776 -1.67,0 -3.1,0.592 -4.29,1.776 -1.19,1.184 -1.784,2.607 -1.784,4.27 v 9.674 c 0,1.662 0.595,3.086 1.784,4.27 1.19,1.183 2.62,1.775 4.29,1.775 z"
       id="path4294" />
    <path
       style="fill:#000000"
       d="m 57.013,36.701 c -0.24,-0.24 -0.525,-0.359 -0.854,-0.359 -0.328,0 -0.613,0.12 -0.854,0.36 -0.24,0.238 -0.36,0.522 -0.36,0.85 v 2.418 c 0,2.33 -0.833,4.323 -2.497,5.98 -1.664,1.656 -3.666,2.484 -6.008,2.484 -2.341,0 -4.344,-0.828 -6.008,-2.484 -1.664,-1.656 -2.496,-3.65 -2.496,-5.98 v -2.42 c 0,-0.327 -0.12,-0.61 -0.36,-0.85 a 1.17,1.17 0 0 0 -0.855,-0.359 c -0.33,0 -0.614,0.12 -0.854,0.36 -0.241,0.238 -0.361,0.522 -0.361,0.85 v 2.418 c 0,2.783 0.933,5.205 2.8,7.264 1.866,2.06 4.173,3.24 6.92,3.542 v 2.495 h -4.86 c -0.33,0 -0.614,0.12 -0.855,0.359 -0.24,0.24 -0.36,0.523 -0.36,0.85 0,0.327 0.12,0.611 0.36,0.85 0.24,0.24 0.526,0.36 0.855,0.36 h 12.148 c 0.33,0 0.615,-0.12 0.855,-0.36 0.24,-0.239 0.36,-0.523 0.36,-0.85 0,-0.327 -0.12,-0.61 -0.36,-0.85 a 1.17,1.17 0 0 0 -0.855,-0.36 h -4.859 v -2.494 c 2.746,-0.302 5.053,-1.482 6.92,-3.542 1.866,-2.059 2.8,-4.48 2.8,-7.264 V 37.55 c 0,-0.327 -0.12,-0.61 -0.362,-0.85 z"
       id="path4296" />
  </g>
</svg>
